<svg xmlns="http://www.w3.org/2000/svg" xmlns:xlink="http://www.w3.org/1999/xlink" viewBox="0 0 1920 1080"><defs><style>.cls-1{fill:url(#linear-gradient);}.cls-2{opacity:0.4;fill:url(#linear-gradient-2);}.cls-3{fill:url(#linear-gradient-3);}.cls-4{fill:url(#linear-gradient-4);}.cls-5{fill:url(#linear-gradient-5);}</style><linearGradient id="linear-gradient" x1="1764.32" y1="-514.52" x2="3486.66" y2="-514.52" gradientTransform="translate(3684.32 -445.35) rotate(180)" gradientUnits="userSpaceOnUse"><stop offset="0" stop-color="#fbfcdb"/><stop offset="0.83" stop-color="#ece4f4"/><stop offset="1" stop-color="#e9defa"/></linearGradient><linearGradient id="linear-gradient-2" x1="639.5" y1="1080" x2="639.5" y2="306" gradientUnits="userSpaceOnUse"><stop offset="0" stop-color="#e9defa"/><stop offset="0.17" stop-color="#ece4f4"/><stop offset="1" stop-color="#fbfcdb"/></linearGradient><linearGradient id="linear-gradient-3" x1="3584.66" y1="-583.68" x2="3584.66" y2="-1225.68" gradientTransform="translate(3684.32 -445.35) rotate(180)" xlink:href="#linear-gradient-2"/><linearGradient id="linear-gradient-4" x1="3441.41" y1="-536.43" x2="3277.91" y2="-699.93" gradientTransform="translate(3684.32 -445.35) rotate(180)" xlink:href="#linear-gradient-2"/><linearGradient id="linear-gradient-5" x1="3366.16" y1="-456.94" x2="3766.67" y2="-688.18" gradientTransform="translate(3684.32 -445.35) rotate(180)" xlink:href="#linear-gradient-2"/></defs><title>Asset 11clout5</title><g id="Layer_2" data-name="Layer 2"><g id="Layer_5" data-name="Layer 5"><g id="Layer_1-2" data-name="Layer 1"><polygon class="cls-1" points="197.66 138.32 1920 0 295.66 0.32 197.66 138.32"/><polygon class="cls-2" points="1279 656 136 306 0 760 2 1080 1226 1080 1279 656"/><polygon class="cls-3" points="1.66 780.32 197.66 138.32 1.66 385.32 1.66 780.32"/><polygon class="cls-4" points="144.66 305.32 562.66 98.32 196.66 137.32 144.66 305.32"/><polygon class="cls-5" points="1.66 388.32 311.66 0.32 1.66 0.32 1.66 388.32"/></g></g></g></svg>